<svg width="296" height="85" viewBox="0 0 296 85" fill="none" xmlns="http://www.w3.org/2000/svg">
<path d="M32.98 64.18C32.8867 64.2267 32.7933 64.25 32.7 64.25C32.6067 64.25 32.42 64.25 32.14 64.25C31.4867 64.25 30.7167 64.1333 29.83 63.9C28.99 63.7133 28.15 63.4567 27.31 63.13C26.5167 62.85 25.8167 62.5233 25.21 62.15C24.65 61.7767 24.3 61.45 24.16 61.17C24.1133 60.5167 24.09 59.84 24.09 59.14C24.09 58.44 24.09 57.7633 24.09 57.11C24.09 51.8833 24.4633 46.4233 25.21 40.73C26.0033 35.0367 27.2867 28.8767 29.06 22.25C29.2467 21.5967 29.4333 20.78 29.62 19.8C29.8533 18.7733 30.0867 17.6767 30.32 16.51C29.2 17.3967 27.87 18.82 26.33 20.78C24.79 22.6933 23.1567 24.98 21.43 27.64C19.75 30.2533 18.0467 33.1467 16.32 36.32C14.64 39.4467 13.1 42.6433 11.7 45.91C10.3 49.13 9.08667 52.3267 8.06 55.5C7.08 58.6733 6.47333 61.6133 6.24 64.32C4 63.6667 2.43667 63.0133 1.55 62.36C0.71 61.7067 0.29 60.9133 0.29 59.98C0.29 59.14 0.546667 57.95 1.06 56.41C1.57333 54.87 2.29667 53.05 3.23 50.95C4.16333 48.85 5.30667 46.5167 6.66 43.95C8.01333 41.3367 9.50667 38.5367 11.14 35.55C13.0067 32.1433 14.8267 28.9467 16.6 25.96C18.42 22.9733 20.1933 20.2667 21.92 17.84C23.6467 15.4133 25.3267 13.3133 26.96 11.54C28.64 9.76666 30.2967 8.41333 31.93 7.48C32.5833 7.48 33.4467 7.64333 34.52 7.97C35.64 8.29666 36.7133 8.69333 37.74 9.16C38.8133 9.62667 39.7467 10.1167 40.54 10.63C41.38 11.0967 41.8467 11.4933 41.94 11.82C41.2867 13.1267 40.5167 15.0867 39.63 17.7C38.7433 20.3133 37.8333 23.2767 36.9 26.59C36.0133 29.9033 35.15 33.4267 34.31 37.16C33.5167 40.8467 32.8867 44.3933 32.42 47.8C33.4933 45.2333 34.73 42.5733 36.13 39.82C37.5767 37.02 39.0933 34.2667 40.68 31.56C42.2667 28.8067 43.8767 26.1467 45.51 23.58C47.19 21.0133 48.8233 18.68 50.41 16.58C51.9967 14.4333 53.4667 12.5667 54.82 10.98C56.22 9.39333 57.4567 8.22666 58.53 7.48C59.1833 7.48 60.0467 7.64333 61.12 7.97C62.24 8.29666 63.3133 8.69333 64.34 9.16C65.4133 9.62667 66.3467 10.1167 67.14 10.63C67.98 11.0967 68.4467 11.4933 68.54 11.82C67.0467 14.48 65.74 17.7233 64.62 21.55C63.5 25.3767 62.5433 29.39 61.75 33.59C61.0033 37.79 60.42 41.9667 60 46.12C59.6267 50.2267 59.44 53.9133 59.44 57.18C59.44 58.2533 59.44 59.3733 59.44 60.54C59.44 61.7067 59.4867 62.92 59.58 64.18C58.9267 64.18 58.1333 64.0867 57.2 63.9C56.3133 63.76 55.4267 63.55 54.54 63.27C53.7 62.99 52.93 62.6633 52.23 62.29C51.53 61.9633 51.04 61.59 50.76 61.17C50.7133 60.5167 50.69 59.84 50.69 59.14C50.69 58.44 50.69 57.7633 50.69 57.11C50.69 51.8833 51.0633 46.4233 51.81 40.73C52.6033 35.0367 53.8867 28.8767 55.66 22.25C55.8467 21.5967 56.0567 20.71 56.29 19.59C56.5233 18.47 56.7567 17.3033 56.99 16.09C55.6833 16.7433 54.19 18.0033 52.51 19.87C50.8767 21.69 49.1967 23.93 47.47 26.59C45.79 29.2033 44.11 32.12 42.43 35.34C40.7967 38.56 39.3033 41.85 37.95 45.21C36.6433 48.5233 35.5233 51.8367 34.59 55.15C33.7033 58.4167 33.1667 61.4267 32.98 64.18ZM94.4362 48.15C93.3628 51.5567 92.2895 54.66 91.2162 57.46C90.1428 60.26 88.9995 62.8267 87.7862 65.16C86.5728 67.54 85.2662 69.71 83.8662 71.67C82.4662 73.6767 80.9262 75.5667 79.2462 77.34C77.0995 79.58 74.8828 81.2833 72.5962 82.45C70.3095 83.6633 68.0228 84.27 65.7362 84.27C64.5695 84.27 63.4028 84.13 62.2362 83.85C61.1162 83.6167 60.0662 83.2667 59.0862 82.8C58.0595 82.38 57.1728 81.8667 56.4262 81.26C55.6328 80.7 55.0728 80.0933 54.7462 79.44C54.7462 78.88 55.0728 78.39 55.7262 77.97C56.2862 78.4833 56.7528 78.88 57.1262 79.16C57.4995 79.44 57.8728 79.6733 58.2462 79.86C58.5728 80.0467 58.9462 80.1633 59.3662 80.21C59.7395 80.2567 60.1828 80.28 60.6962 80.28C63.3562 80.28 65.9462 79.4867 68.4662 77.9C71.0328 76.36 73.4362 74.1433 75.6762 71.25C77.9628 68.4033 80.0395 64.9267 81.9062 60.82C83.7728 56.76 85.3595 52.21 86.6662 47.17C86.0595 48.1033 85.3128 49.2467 84.4262 50.6C83.5395 51.9533 82.5595 53.3067 81.4862 54.66C80.4128 55.9667 79.2928 57.1567 78.1262 58.23C77.0062 59.3033 75.9095 60.0267 74.8362 60.4C74.0895 60.3533 73.2962 60.19 72.4562 59.91C71.6628 59.6767 70.8928 59.3267 70.1462 58.86C69.4462 58.3933 68.8162 57.8333 68.2562 57.18C67.6962 56.5267 67.3228 55.78 67.1362 54.94C67.1362 53.5867 67.1828 52.5133 67.2762 51.72C67.3695 50.88 67.5328 49.97 67.7662 48.99C68.1862 47.2167 68.7928 45.21 69.5862 42.97C70.4262 40.73 71.3828 38.5367 72.4562 36.39C73.5762 34.1967 74.7895 32.1667 76.0962 30.3C77.4495 28.3867 78.8495 26.8933 80.2962 25.82C80.6695 25.82 81.1362 25.8667 81.6962 25.96C82.2562 26.0067 82.8395 26.1233 83.4462 26.31C84.0528 26.4967 84.6362 26.73 85.1962 27.01C85.7562 27.2433 86.2462 27.57 86.6662 27.99C86.1528 28.4567 85.0328 30.02 83.3062 32.68C81.5795 35.34 79.6662 39.1667 77.5662 44.16C77.3328 44.6733 77.0528 45.42 76.7262 46.4C76.3995 47.38 76.0728 48.4067 75.7462 49.48C75.4662 50.5533 75.2095 51.6033 74.9762 52.63C74.7428 53.6567 74.6262 54.4733 74.6262 55.08C74.6262 55.4533 74.6728 55.7333 74.7662 55.92C74.9062 56.1067 75.0228 56.2467 75.1162 56.34C75.9562 56.2 77.0762 55.5233 78.4762 54.31C79.8762 53.05 81.4628 51.1133 83.2362 48.5C84.3562 46.82 85.3828 45.1633 86.3162 43.53C87.2495 41.85 88.1595 40.17 89.0462 38.49C89.9795 36.81 90.9362 35.0833 91.9162 33.31C92.8962 31.5367 93.9462 29.7167 95.0662 27.85C95.6728 27.85 96.3262 27.92 97.0262 28.06C97.7262 28.2 98.4028 28.3867 99.0562 28.62C99.7095 28.8067 100.27 29.04 100.736 29.32C101.25 29.5533 101.623 29.81 101.856 30.09C100.41 33.17 99.0562 36.18 97.7962 39.12C96.5362 42.06 95.4162 45.07 94.4362 48.15ZM122.894 79.23C121.727 78.7633 121.027 77.8767 120.794 76.57C120.607 75.31 119.814 74.2833 118.414 73.49C118.787 71.11 119.207 68.7067 119.674 66.28C120.141 63.8533 120.724 61.1 121.424 58.02C122.171 54.8933 123.081 51.2767 124.154 47.17C125.274 43.0167 126.674 38 128.354 32.12C126.814 32.12 125.601 32.1433 124.714 32.19C123.827 32.2367 122.964 32.33 122.124 32.47C121.937 32.2833 121.774 32.0267 121.634 31.7C121.541 31.3733 121.494 31.07 121.494 30.79C121.961 30.6033 122.917 30.37 124.364 30.09C125.811 29.7633 127.397 29.4833 129.124 29.25C130.244 25.7033 131.527 22.53 132.974 19.73C134.421 16.8833 135.984 14.4567 137.664 12.45C139.344 10.4433 141.117 8.90333 142.984 7.83C144.851 6.75667 146.741 6.22 148.654 6.22C149.214 6.22 149.751 6.26667 150.264 6.36C150.777 6.40666 151.174 6.43 151.454 6.43C151.874 6.10333 152.434 5.82333 153.134 5.59C153.834 5.31 154.441 5.17 154.954 5.17C155.514 5.17 156.237 5.47333 157.124 6.08C156.751 6.73333 156.354 7.62 155.934 8.74C155.514 9.86 155.164 10.9567 154.884 12.03C153.717 15.4833 152.481 17.7233 151.174 18.75C150.661 18.75 150.381 18.0733 150.334 16.72C150.287 15.74 150.147 14.7833 149.914 13.85C149.727 13.43 149.587 13.0567 149.494 12.73C149.447 12.4033 149.424 11.9833 149.424 11.47C149.424 11.19 149.447 10.8633 149.494 10.49C149.541 10.07 149.634 9.39333 149.774 8.46C148.981 8.46 148.094 8.95 147.114 9.93C146.181 10.91 145.177 12.31 144.104 14.13C143.077 15.9033 142.027 18.0267 140.954 20.5C139.881 22.9733 138.854 25.7033 137.874 28.69L143.754 28.48C143.987 28.7133 144.174 29.25 144.314 30.09C144.501 30.8833 144.617 31.7233 144.664 32.61L136.964 32.19C135.191 37.4633 133.534 42.5033 131.994 47.31C130.454 52.1167 129.077 56.55 127.864 60.61C126.651 64.67 125.601 68.2867 124.714 71.46C123.874 74.68 123.267 77.27 122.894 79.23ZM166.778 30.72C167.245 30.72 167.781 30.8133 168.388 31C169.041 31.14 169.625 31.35 170.138 31.63C170.651 31.8633 171.071 32.12 171.398 32.4C171.771 32.68 171.958 32.9367 171.958 33.17C171.025 35.13 170.161 37.1133 169.368 39.12C168.575 41.08 167.898 42.97 167.338 44.79C166.778 46.61 166.335 48.3133 166.008 49.9C165.728 51.4867 165.588 52.8633 165.588 54.03C165.588 55.3367 165.728 56.4333 166.008 57.32C166.288 58.16 166.755 58.7667 167.408 59.14C166.848 59.5133 166.125 59.8167 165.238 60.05C164.351 60.2833 163.558 60.4 162.858 60.4C160.338 60.4 159.078 58.6733 159.078 55.22C159.078 52.56 159.965 48.92 161.738 44.3C160.805 46.4467 159.731 48.4767 158.518 50.39C157.305 52.2567 156.068 53.9133 154.808 55.36C153.548 56.8067 152.265 57.9967 150.958 58.93C149.698 59.8167 148.531 60.3533 147.458 60.54C145.731 60.4467 144.331 59.63 143.258 58.09C142.185 56.5033 141.648 54.4967 141.648 52.07C141.648 49.4567 142.208 46.7033 143.328 43.81C144.448 40.9167 145.871 38.2333 147.598 35.76C149.371 33.2867 151.285 31.2333 153.338 29.6C155.391 27.92 157.375 27.0333 159.288 26.94C159.755 27.08 160.268 27.36 160.828 27.78C161.435 28.2 161.995 28.69 162.508 29.25C163.068 29.81 163.535 30.3933 163.908 31C164.281 31.56 164.491 32.05 164.538 32.47C162.671 32.75 160.735 33.66 158.728 35.2C156.768 36.74 154.971 38.6067 153.338 40.8C151.751 42.9467 150.445 45.2567 149.418 47.73C148.391 50.2033 147.878 52.5133 147.878 54.66C147.878 55.5467 148.205 56.1067 148.858 56.34C150.211 56.06 151.775 54.9167 153.548 52.91C155.321 50.8567 157.468 47.7067 159.988 43.46C160.455 42.62 160.968 41.6867 161.528 40.66C162.135 39.6333 162.741 38.56 163.348 37.44C163.955 36.32 164.538 35.2 165.098 34.08C165.705 32.9133 166.265 31.7933 166.778 30.72ZM215.969 37.51C215.222 37.5567 214.312 38.0467 213.239 38.98C212.165 39.8667 210.999 41.0333 209.739 42.48C208.525 43.88 207.242 45.4433 205.889 47.17C204.582 48.8967 203.299 50.6233 202.039 52.35C200.825 54.03 199.682 55.6167 198.609 57.11C197.535 58.6033 196.625 59.7933 195.879 60.68C194.852 60.26 193.965 59.6533 193.219 58.86C192.472 58.02 191.935 56.9933 191.609 55.78C191.842 54.3333 192.169 52.84 192.589 51.3C193.009 49.7133 193.545 48.08 194.199 46.4C194.899 44.72 195.739 42.97 196.719 41.15C197.745 39.2833 198.982 37.3233 200.429 35.27C199.729 35.3167 198.772 35.83 197.559 36.81C196.345 37.7433 195.039 38.98 193.639 40.52C192.239 42.0133 190.792 43.7167 189.299 45.63C187.805 47.4967 186.405 49.34 185.099 51.16C183.372 53.5867 181.925 55.71 180.759 57.53C179.639 59.35 178.822 60.4233 178.309 60.75C177.095 59.8633 176.255 58.9067 175.789 57.88C175.322 56.8533 174.972 55.71 174.739 54.45C174.785 53.33 174.949 51.93 175.229 50.25C175.555 48.57 175.999 46.8433 176.559 45.07C177.632 41.6633 179.009 38.28 180.689 34.92C182.415 31.56 184.072 28.48 185.659 25.68C186.965 25.96 188.132 26.4033 189.159 27.01C190.232 27.6167 191.352 28.5033 192.519 29.67C192.052 31.1167 191.329 32.6567 190.349 34.29C189.369 35.8767 188.342 37.5567 187.269 39.33C186.195 41.1033 185.215 42.9233 184.329 44.79C183.442 46.6567 182.859 48.5467 182.579 50.46C183.885 48.5933 185.425 46.4467 187.199 44.02C189.019 41.5933 190.862 39.3067 192.729 37.16C194.642 35.0133 196.532 33.1933 198.399 31.7C200.265 30.2067 201.945 29.46 203.439 29.46C203.999 29.46 204.605 29.5533 205.259 29.74C205.912 29.9267 206.519 30.16 207.079 30.44C207.639 30.72 208.105 31 208.479 31.28C208.852 31.5133 209.062 31.7 209.109 31.84C208.875 32.7733 208.315 34.0567 207.429 35.69C206.589 37.2767 205.679 38.9567 204.699 40.73C203.719 42.5033 202.809 44.23 201.969 45.91C201.129 47.5433 200.639 48.85 200.499 49.83C202.785 46.7033 204.932 43.88 206.939 41.36C208.945 38.7933 210.835 36.6 212.609 34.78C214.382 32.96 216.015 31.56 217.509 30.58C219.049 29.6 220.495 29.11 221.849 29.11C222.782 29.11 223.645 29.3667 224.439 29.88C225.279 30.3467 225.862 31.0467 226.189 31.98C225.769 33.38 225.069 35.06 224.089 37.02C223.155 38.98 222.199 41.0567 221.219 43.25C220.239 45.3967 219.352 47.52 218.559 49.62C217.812 51.72 217.439 53.61 217.439 55.29C217.439 56.27 217.579 56.9233 217.859 57.25C218.139 57.53 218.535 57.67 219.049 57.67C219.609 57.67 220.122 57.5767 220.589 57.39C221.102 57.1567 221.475 57.04 221.709 57.04C221.989 57.2267 222.152 57.46 222.199 57.74C222.245 58.02 222.269 58.2767 222.269 58.51C221.335 59.2567 220.379 59.8633 219.399 60.33C218.419 60.8433 217.322 61.1 216.109 61.1C214.989 61.1 214.055 60.9133 213.309 60.54C212.609 60.1667 212.025 59.6533 211.559 59C211.092 58.3467 210.765 57.6 210.579 56.76C210.392 55.92 210.299 55.01 210.299 54.03C210.299 52.4433 210.509 50.88 210.929 49.34C211.349 47.7533 211.839 46.26 212.399 44.86C213.005 43.4133 213.635 42.0833 214.289 40.87C214.942 39.61 215.502 38.49 215.969 37.51ZM229.104 54.31C229.104 53.89 229.127 53.3767 229.174 52.77C229.267 52.1167 229.407 51.2767 229.594 50.25C229.781 49.1767 230.014 47.8933 230.294 46.4C230.621 44.9067 231.017 43.11 231.484 41.01C231.577 40.5433 231.787 39.7967 232.114 38.77C232.441 37.7433 232.861 36.67 233.374 35.55C233.934 34.3833 234.587 33.2633 235.334 32.19C236.127 31.1167 237.061 30.3233 238.134 29.81C238.927 29.9967 239.977 30.4867 241.284 31.28C242.591 32.0267 243.711 33.0767 244.644 34.43C243.571 35.6433 242.661 36.8567 241.914 38.07C241.214 39.2833 240.561 40.5433 239.954 41.85C239.394 43.1567 238.857 44.51 238.344 45.91C237.877 47.31 237.341 48.78 236.734 50.32C236.221 51.6267 235.754 52.98 235.334 54.38C234.914 55.7333 234.681 56.9233 234.634 57.95C234.634 58.79 234.611 59.3733 234.564 59.7C234.564 60.0733 234.447 60.26 234.214 60.26C234.027 60.26 233.654 60.1433 233.094 59.91C232.534 59.6767 231.951 59.3267 231.344 58.86C230.784 58.3467 230.271 57.7167 229.804 56.97C229.337 56.2233 229.104 55.3367 229.104 54.31ZM242.474 23.93C242.474 23.65 242.544 23.23 242.684 22.67C242.451 22.4367 242.241 22.0867 242.054 21.62C241.914 21.1533 241.844 20.7333 241.844 20.36C241.844 19.94 241.891 19.38 241.984 18.68C242.124 17.9333 242.287 17.14 242.474 16.3C242.661 15.46 242.894 14.5967 243.174 13.71C243.454 12.7767 243.734 11.9367 244.014 11.19C244.574 11.19 245.251 11.3533 246.044 11.68C246.884 11.96 247.724 12.3567 248.564 12.87C249.404 13.3367 250.174 13.8733 250.874 14.48C251.574 15.04 252.111 15.5767 252.484 16.09C251.971 16.6033 251.294 17.3267 250.454 18.26C249.614 19.1467 248.797 20.1033 248.004 21.13C247.211 22.11 246.487 23.0433 245.834 23.93C245.181 24.8167 244.761 25.4467 244.574 25.82C244.014 25.7267 243.524 25.4933 243.104 25.12C242.684 24.7 242.474 24.3033 242.474 23.93ZM245.507 54.52C245.507 52.4667 245.997 49.5967 246.977 45.91C247.957 42.1767 249.334 37.8367 251.107 32.89C254 25.0033 256.707 18.4467 259.227 13.22C261.794 7.94666 264.29 3.84 266.717 0.899997C267.277 0.993329 267.954 1.22666 268.747 1.6C269.587 1.97333 270.404 2.39333 271.197 2.86C271.99 3.28 272.69 3.72333 273.297 4.19C273.95 4.65666 274.37 5.03 274.557 5.31C270.917 9.60333 267.72 14.2233 264.967 19.17C262.214 24.1167 259.694 29.7867 257.407 36.18C255.447 41.6867 253.954 46.6567 252.927 51.09C251.9 55.4767 251.387 59.14 251.387 62.08C251.387 62.8733 251.387 63.3633 251.387 63.55C251.387 63.7367 251.41 63.9233 251.457 64.11C250.804 64.0167 250.244 63.8533 249.777 63.62C249.31 63.3867 249.007 63.1067 248.867 62.78C248.774 62.5467 248.517 62.1967 248.097 61.73C247.677 61.31 247.304 60.9833 246.977 60.75C246.557 60.47 246.207 59.7467 245.927 58.58C245.647 57.3667 245.507 56.0133 245.507 54.52ZM288.44 48.15C287.367 51.5567 286.293 54.66 285.22 57.46C284.147 60.26 283.003 62.8267 281.79 65.16C280.577 67.54 279.27 69.71 277.87 71.67C276.47 73.6767 274.93 75.5667 273.25 77.34C271.103 79.58 268.887 81.2833 266.6 82.45C264.313 83.6633 262.027 84.27 259.74 84.27C258.573 84.27 257.407 84.13 256.24 83.85C255.12 83.6167 254.07 83.2667 253.09 82.8C252.063 82.38 251.177 81.8667 250.43 81.26C249.637 80.7 249.077 80.0933 248.75 79.44C248.75 78.88 249.077 78.39 249.73 77.97C250.29 78.4833 250.757 78.88 251.13 79.16C251.503 79.44 251.877 79.6733 252.25 79.86C252.577 80.0467 252.95 80.1633 253.37 80.21C253.743 80.2567 254.187 80.28 254.7 80.28C257.36 80.28 259.95 79.4867 262.47 77.9C265.037 76.36 267.44 74.1433 269.68 71.25C271.967 68.4033 274.043 64.9267 275.91 60.82C277.777 56.76 279.363 52.21 280.67 47.17C280.063 48.1033 279.317 49.2467 278.43 50.6C277.543 51.9533 276.563 53.3067 275.49 54.66C274.417 55.9667 273.297 57.1567 272.13 58.23C271.01 59.3033 269.913 60.0267 268.84 60.4C268.093 60.3533 267.3 60.19 266.46 59.91C265.667 59.6767 264.897 59.3267 264.15 58.86C263.45 58.3933 262.82 57.8333 262.26 57.18C261.7 56.5267 261.327 55.78 261.14 54.94C261.14 53.5867 261.187 52.5133 261.28 51.72C261.373 50.88 261.537 49.97 261.77 48.99C262.19 47.2167 262.797 45.21 263.59 42.97C264.43 40.73 265.387 38.5367 266.46 36.39C267.58 34.1967 268.793 32.1667 270.1 30.3C271.453 28.3867 272.853 26.8933 274.3 25.82C274.673 25.82 275.14 25.8667 275.7 25.96C276.26 26.0067 276.843 26.1233 277.45 26.31C278.057 26.4967 278.64 26.73 279.2 27.01C279.76 27.2433 280.25 27.57 280.67 27.99C280.157 28.4567 279.037 30.02 277.31 32.68C275.583 35.34 273.67 39.1667 271.57 44.16C271.337 44.6733 271.057 45.42 270.73 46.4C270.403 47.38 270.077 48.4067 269.75 49.48C269.47 50.5533 269.213 51.6033 268.98 52.63C268.747 53.6567 268.63 54.4733 268.63 55.08C268.63 55.4533 268.677 55.7333 268.77 55.92C268.91 56.1067 269.027 56.2467 269.12 56.34C269.96 56.2 271.08 55.5233 272.48 54.31C273.88 53.05 275.467 51.1133 277.24 48.5C278.36 46.82 279.387 45.1633 280.32 43.53C281.253 41.85 282.163 40.17 283.05 38.49C283.983 36.81 284.94 35.0833 285.92 33.31C286.9 31.5367 287.95 29.7167 289.07 27.85C289.677 27.85 290.33 27.92 291.03 28.06C291.73 28.2 292.407 28.3867 293.06 28.62C293.713 28.8067 294.273 29.04 294.74 29.32C295.253 29.5533 295.627 29.81 295.86 30.09C294.413 33.17 293.06 36.18 291.8 39.12C290.54 42.06 289.42 45.07 288.44 48.15Z" fill="white"/>
</svg>
